HIERARCHY
ROOT Hips
{
	OFFSET 0.000000 83.214638 0.000000
	CHANNELS 6 Xposition Yposition Zposition Xrotation Yrotation Zrotation
	JOINT Pelvis
	{
		OFFSET 0.000000 0.000000 0.000000
		CHANNELS 3 Xrotation Yrotation Zrotation
		JOINT LeftUpLeg
		{
			OFFSET 8.479700 -4.795502 -0.379100
			CHANNELS 3 Xrotation Yrotation Zrotation
			JOINT LeftLeg
			{
				OFFSET 0.024144 -32.555107 0.112900
				CHANNELS 3 Xrotation Yrotation Zrotation
				JOINT LeftFoot
				{
					OFFSET -0.024144 -32.638630 -3.012600
					CHANNELS 3 Xrotation Yrotation Zrotation
					JOINT LeftToeBase
					{
						OFFSET 0.970200 -13.225400 11.864200
						CHANNELS 3 Xrotation Yrotation Zrotation
						End Site
						{
							OFFSET 0.000000 12.319262 0.000000
						}
					}
					JOINT LFootTongue
					{
						OFFSET 1.142400 -1.059800 6.665200
						CHANNELS 3 Xrotation Yrotation Zrotation
						End Site
						{
							OFFSET 0.000000 12.319262 0.000000
						}
					}
				}
				JOINT LeftPantLeg
				{
					OFFSET 0.918482 -16.533964 -2.284700
					CHANNELS 3 Xrotation Yrotation Zrotation
					End Site
					{
						OFFSET 0.350399 24.744368 0.000000
					}
				}
			}
		}
		JOINT RightUpLeg
		{
			OFFSET -8.479700 -4.795502 -0.379100
			CHANNELS 3 Xrotation Yrotation Zrotation
			JOINT RightLeg
			{
				OFFSET -0.023144 -32.555092 0.112900
				CHANNELS 3 Xrotation Yrotation Zrotation
				JOINT RightFoot
				{
					OFFSET 0.023144 -32.638641 -3.012700
					CHANNELS 3 Xrotation Yrotation Zrotation
					JOINT RightToeBase
					{
						OFFSET -0.970200 -13.225400 11.864200
						CHANNELS 3 Xrotation Yrotation Zrotation
						End Site
						{
							OFFSET 0.000000 12.319244 0.000000
						}
					}
					JOINT RFootTongue
					{
						OFFSET -1.142200 -1.059800 6.665200
						CHANNELS 3 Xrotation Yrotation Zrotation
						End Site
						{
							OFFSET 0.000000 12.319243 0.000000
						}
					}
				}
				JOINT RightPantLeg
				{
					OFFSET -0.919482 -16.533978 -2.284800
					CHANNELS 3 Xrotation Yrotation Zrotation
					End Site
					{
						OFFSET -0.350400 24.744419 0.000000
					}
				}
			}
		}
	}
	JOINT Spine
	{
		OFFSET 0.000000 7.722000 1.166200
		CHANNELS 3 Xrotation Yrotation Zrotation
		JOINT Spine1
		{
			OFFSET 0.000000 12.024101 0.248800
			CHANNELS 3 Xrotation Yrotation Zrotation
			JOINT Spine2
			{
				OFFSET 0.000000 11.502998 -0.491200
				CHANNELS 3 Xrotation Yrotation Zrotation
				JOINT Neck
				{
					OFFSET 0.000000 18.430702 -3.123100
					CHANNELS 3 Xrotation Yrotation Zrotation
					JOINT Head
					{
						OFFSET 0.000000 9.051102 1.034000
						CHANNELS 3 Xrotation Yrotation Zrotation
						JOINT HairB
						{
							OFFSET 0.208400 24.786102 24.822300
							CHANNELS 3 Xrotation Yrotation Zrotation
							End Site
							{
								OFFSET 0.000000 32.263779 0.000000
							}
						}
						JOINT HairA
						{
							OFFSET -7.081100 24.428299 23.196600
							CHANNELS 3 Xrotation Yrotation Zrotation
							End Site
							{
								OFFSET 0.000000 32.263779 0.000000
							}
						}
						JOINT Hat
						{
							OFFSET 16.728800 15.048294 -15.439601
							CHANNELS 3 Xrotation Yrotation Zrotation
							End Site
							{
								OFFSET 0.000000 32.263779 0.000000
							}
						}
					}
				}
				JOINT LeftShoulder
				{
					OFFSET 6.197800 13.665199 -4.064700
					CHANNELS 3 Xrotation Yrotation Zrotation
					JOINT LeftArm
					{
						OFFSET 7.778100 -0.187103 -1.709300
						CHANNELS 3 Xrotation Yrotation Zrotation
						JOINT LeftForeArm
						{
							OFFSET 22.049376 0.000000 0.000000
							CHANNELS 3 Xrotation Yrotation Zrotation
							JOINT LeftHand
							{
								OFFSET 23.009392 0.000000 0.000000
								CHANNELS 3 Xrotation Yrotation Zrotation
								JOINT LeftHandThumb1
								{
									OFFSET 3.507191 -2.063065 3.133727
									CHANNELS 3 Xrotation Yrotation Zrotation
									JOINT LeftHandThumb2
									{
										OFFSET 3.101337 -1.790558 1.790558
										CHANNELS 3 Xrotation Yrotation Zrotation
										JOINT LeftHandThumb3
										{
											OFFSET 3.058640 -1.765907 1.765906
											CHANNELS 3 Xrotation Yrotation Zrotation
											End Site
											{
												OFFSET -0.415260 3.926476 -0.049563
											}
										}
									}
								}
								JOINT LeftHandIndex1
								{
									OFFSET 11.334419 -0.901459 3.706815
									CHANNELS 3 Xrotation Yrotation Zrotation
									JOINT LeftHandIndex2
									{
										OFFSET 3.283112 0.000000 0.000000
										CHANNELS 3 Xrotation Yrotation Zrotation
										JOINT LeftHandIndex3
										{
											OFFSET 3.323853 0.000000 0.000000
											CHANNELS 3 Xrotation Yrotation Zrotation
											End Site
											{
												OFFSET -1.135597 3.097809 0.402452
											}
										}
									}
								}
								JOINT LeftHandMiddle1
								{
									OFFSET 11.335861 0.000000 0.000000
									CHANNELS 3 Xrotation Yrotation Zrotation
									JOINT LeftHandMiddle2
									{
										OFFSET 3.410492 0.000000 0.000000
										CHANNELS 3 Xrotation Yrotation Zrotation
										JOINT LeftHandMiddle3
										{
											OFFSET 3.312172 0.000000 0.000000
											CHANNELS 3 Xrotation Yrotation Zrotation
											End Site
											{
												OFFSET -1.150200 3.080154 0.400270
											}
										}
									}
								}
								JOINT LeftHandRing1
								{
									OFFSET 11.514786 -0.013176 -3.003090
									CHANNELS 3 Xrotation Yrotation Zrotation
									JOINT LeftHandRing2
									{
										OFFSET 3.053307 0.000000 0.000000
										CHANNELS 3 Xrotation Yrotation Zrotation
										JOINT LeftHandRing3
										{
											OFFSET 3.295807 0.000000 0.000000
											CHANNELS 3 Xrotation Yrotation Zrotation
											End Site
											{
												OFFSET -1.281006 3.013344 0.375733
											}
										}
									}
								}
								JOINT LeftHandPinky1
								{
									OFFSET 10.518692 -0.960396 -5.730441
									CHANNELS 3 Xrotation Yrotation Zrotation
									JOINT LeftHandPinky2
									{
										OFFSET 2.861649 0.000000 0.000000
										CHANNELS 3 Xrotation Yrotation Zrotation
										JOINT LeftHandPinky3
										{
											OFFSET 2.863380 0.000000 0.000000
											CHANNELS 3 Xrotation Yrotation Zrotation
											End Site
											{
												OFFSET -0.843597 2.711159 0.369971
											}
										}
									}
								}
							}
							JOINT LSleeve
							{
								OFFSET 6.676277 -0.344902 -1.011730
								CHANNELS 3 Xrotation Yrotation Zrotation
								End Site
								{
									OFFSET 0.000000 14.885353 0.000000
								}
							}
						}
					}
				}
				JOINT RightShoulder
				{
					OFFSET -6.197800 13.665199 -4.064700
					CHANNELS 3 Xrotation Yrotation Zrotation
					JOINT RightArm
					{
						OFFSET -7.778100 -0.187103 -1.709300
						CHANNELS 3 Xrotation Yrotation Zrotation
						JOINT RightForeArm
						{
							OFFSET -22.049376 0.000000 0.000000
							CHANNELS 3 Xrotation Yrotation Zrotation
							JOINT RightHand
							{
								OFFSET -23.009392 0.000000 0.000000
								CHANNELS 3 Xrotation Yrotation Zrotation
								JOINT RightHandThumb1
								{
									OFFSET -3.507191 -2.063065 3.133727
									CHANNELS 3 Xrotation Yrotation Zrotation
									JOINT RightHandThumb2
									{
										OFFSET -3.101337 -1.790558 1.790558
										CHANNELS 3 Xrotation Yrotation Zrotation
										JOINT RightHandThumb3
										{
											OFFSET -3.058640 -1.765907 1.765906
											CHANNELS 3 Xrotation Yrotation Zrotation
											End Site
											{
												OFFSET 0.415260 3.926476 -0.049563
											}
										}
									}
								}
								JOINT RightHandIndex1
								{
									OFFSET -11.334419 -0.901459 3.706815
									CHANNELS 3 Xrotation Yrotation Zrotation
									JOINT RightHandIndex2
									{
										OFFSET -3.283112 0.000000 0.000000
										CHANNELS 3 Xrotation Yrotation Zrotation
										JOINT RightHandIndex3
										{
											OFFSET -3.323853 0.000000 0.000000
											CHANNELS 3 Xrotation Yrotation Zrotation
											End Site
											{
												OFFSET 1.135597 3.097809 0.402452
											}
										}
									}
								}
								JOINT RightHandMiddle1
								{
									OFFSET -11.335861 0.000000 0.000000
									CHANNELS 3 Xrotation Yrotation Zrotation
									JOINT RightHandMiddle2
									{
										OFFSET -3.410492 0.000000 0.000000
										CHANNELS 3 Xrotation Yrotation Zrotation
										JOINT RightHandMiddle3
										{
											OFFSET -3.312172 0.000000 0.000000
											CHANNELS 3 Xrotation Yrotation Zrotation
											End Site
											{
												OFFSET 1.150200 3.080154 0.400270
											}
										}
									}
								}
								JOINT RightHandRing1
								{
									OFFSET -11.514786 -0.013176 -3.003090
									CHANNELS 3 Xrotation Yrotation Zrotation
									JOINT RightHandRing2
									{
										OFFSET -3.053307 0.000000 0.000000
										CHANNELS 3 Xrotation Yrotation Zrotation
										JOINT RightHandRing3
										{
											OFFSET -3.295807 0.000000 0.000000
											CHANNELS 3 Xrotation Yrotation Zrotation
											End Site
											{
												OFFSET 1.281006 3.013344 0.375733
											}
										}
									}
								}
								JOINT RightHandPinky1
								{
									OFFSET -10.518692 -0.960396 -5.730441
									CHANNELS 3 Xrotation Yrotation Zrotation
									JOINT RightHandPinky2
									{
										OFFSET -2.861649 0.000000 0.000000
										CHANNELS 3 Xrotation Yrotation Zrotation
										JOINT RightHandPinky3
										{
											OFFSET -2.863380 0.000000 0.000000
											CHANNELS 3 Xrotation Yrotation Zrotation
											End Site
											{
												OFFSET 0.843597 2.711159 0.369971
											}
										}
									}
								}
							}
							JOINT RSleeve
							{
								OFFSET -6.676277 -0.344902 -1.011730
								CHANNELS 3 Xrotation Yrotation Zrotation
								End Site
								{
									OFFSET 0.000000 14.885353 0.000000
								}
							}
						}
					}
				}
				JOINT Backpack
				{
					OFFSET 0.000000 -2.471497 36.677502
					CHANNELS 3 Xrotation Yrotation Zrotation
					End Site
					{
						OFFSET 0.000000 20.427315 0.000000
					}
				}
				JOINT Hood
				{
					OFFSET 0.000000 18.754097 -10.431000
					CHANNELS 3 Xrotation Yrotation Zrotation
					JOINT Hood1
					{
						OFFSET 0.000000 -5.011002 -7.685901
						CHANNELS 3 Xrotation Yrotation Zrotation
						End Site
						{
							OFFSET 0.000000 9.175140 0.000000
						}
					}
				}
				JOINT LHoodieString
				{
					OFFSET 5.250500 16.397697 3.089900
					CHANNELS 3 Xrotation Yrotation Zrotation
					JOINT LHoodieString1
					{
						OFFSET 0.257700 -6.364304 3.694600
						CHANNELS 3 Xrotation Yrotation Zrotation
						JOINT LHoodieString2
						{
							OFFSET 0.000000 -9.643799 2.679100
							CHANNELS 3 Xrotation Yrotation Zrotation
							End Site
							{
								OFFSET 0.000000 10.009018 0.000000
							}
						}
					}
				}
				JOINT RHoodieString
				{
					OFFSET -5.250500 16.397697 3.089900
					CHANNELS 3 Xrotation Yrotation Zrotation
					JOINT RHoodieString1
					{
						OFFSET -0.257700 -6.364304 3.694600
						CHANNELS 3 Xrotation Yrotation Zrotation
						JOINT RHoodieString2
						{
							OFFSET 0.000000 -9.643799 2.679100
							CHANNELS 3 Xrotation Yrotation Zrotation
							End Site
							{
								OFFSET 0.000000 10.009018 0.000000
							}
						}
					}
				}
			}
			JOINT LBackpack_Strap
			{
				OFFSET 15.223200 -7.719803 -6.610900
				CHANNELS 3 Xrotation Yrotation Zrotation
				End Site
				{
					OFFSET 0.000000 16.040596 0.000000
				}
			}
			JOINT RBackpack_Strap
			{
				OFFSET -15.223000 -7.719803 -6.610900
				CHANNELS 3 Xrotation Yrotation Zrotation
				End Site
				{
					OFFSET 0.000000 16.040596 0.000000
				}
			}
		}
	}
	JOINT BoyFacialAnim_Joint
	{
		OFFSET 1.000000 -82.208099 -1.550900
		CHANNELS 3 Xrotation Yrotation Zrotation
		End Site
		{
			OFFSET 0.000000 30.012791 0.000000
		}
	}
}
MOTION
Frames: 4
Frame Time: 0.033333
-0.184949 74.848289 0.684803 6.951795 -35.375083 1.644470 0.000000 0.000001 0.000000 -56.274188 0.692582 11.573858 94.831528 -12.834194 -1.891687 20.673620 -0.757400 -8.571186 -0.000002 -0.000001 -0.000003 -0.000002 -0.000001 -0.000003 -0.000002 -0.000003 0.000002 -27.178993 -7.894089 -13.331251 50.085224 9.203028 2.476438 -25.898264 -1.278308 3.004062 0.000000 0.000002 -0.000000 0.000000 0.000002 -0.000000 -0.000001 -0.000001 0.000002 13.792351 -1.183881 0.384391 11.583401 -2.888121 -0.707908 -0.276556 -2.680676 -1.287215 -37.320078 12.214411 9.992356 17.906471 22.287177 -4.454539 -0.000000 -0.000000 -0.000000 -0.000000 -0.000000 -0.000000 -0.000000 -0.000000 -0.000000 5.029430 -2.080865 -4.792162 0.792776 -11.486934 -34.340675 -47.038621 -67.486640 -38.757113 5.244405 -26.517028 12.659861 55.348001 -17.910049 23.632799 0.203764 15.017826 -7.426456 -0.000001 -0.000004 -0.000001 5.673317 -7.585004 -36.844165 1.050455 -3.824630 -68.900462 0.000001 0.000001 -0.000002 0.360462 -8.892283 -44.756765 -1.169029 -3.204662 -68.417636 -0.000000 0.000001 -0.000001 -7.482897 -3.765552 -49.754581 -1.021175 -1.361108 -48.018682 0.000001 0.000000 -0.000000 -5.126658 -5.683377 -25.812554 -0.526239 -1.541616 -45.600669 -0.000000 0.000001 0.000002 -0.000000 -0.000003 -0.000002 6.927423 0.611531 11.295952 0.645644 5.368137 41.766945 -56.493734 59.440937 47.045182 2.361049 18.906708 -3.674363 55.149516 18.649572 -29.698202 -0.442561 -14.180483 7.312994 0.000000 -0.000000 0.000000 5.673323 7.585061 36.844322 1.050421 3.824470 68.900141 -0.000003 -0.000001 0.000005 -0.125751 1.885991 45.000882 -1.168939 3.204728 68.417554 0.000002 0.000000 0.000005 -5.312055 1.216604 58.509006 -0.745218 1.667545 48.011217 0.000002 -0.000000 0.000006 -7.756651 -9.376489 47.264086 -0.526230 1.541546 45.600365 0.000001 -0.000001 -0.000002 -0.000001 0.000001 -0.000001 -0.000000 0.000001 -0.000001 -0.000000 0.000001 -0.000001 -0.000000 0.000001 -0.000001 -0.000000 0.000001 -0.000001 -0.000000 0.000001 -0.000000 -0.000000 -0.000001 -0.000000 -0.000000 0.000001 -0.000001 -0.000000 0.000001 -0.000000 -0.000000 -0.000001 -0.000000 -0.000002 0.000001 -0.000000 -0.000002 0.000001 -0.000000 0.000000 0.000001 0.000000 
0.264800 75.529793 3.054255 6.779397 -32.837507 2.616819 -0.000000 0.000002 -0.000000 -54.974099 -0.053195 6.157696 88.184934 -5.883353 -2.650865 11.873297 -0.272321 -5.032372 0.000001 -0.000002 0.000001 0.000001 -0.000002 0.000001 -0.000002 0.000000 -0.000001 -23.070303 -7.539684 -15.383936 45.909588 6.715172 2.188467 -25.609096 -1.936778 6.123814 0.000000 0.000006 -0.000000 0.000000 0.000006 -0.000000 0.000003 0.000000 0.000001 14.070313 -1.024851 0.169035 11.470458 -2.989813 -1.931544 -0.382103 -2.528665 -2.505241 -36.857132 10.491031 9.691245 18.011883 20.553890 -4.137075 0.000001 -0.000000 0.000000 0.000001 -0.000000 0.000000 0.000001 -0.000000 0.000000 4.389503 -2.008975 -3.844043 1.934202 -12.492120 -35.111404 -48.222280 -68.154790 -41.121147 6.142094 -27.017011 16.251721 54.479969 -17.714538 23.313391 0.076273 14.900119 -7.402333 -0.000001 0.000002 -0.000001 5.529650 -7.405910 -35.959061 1.131970 -3.678378 -67.347414 -0.000001 0.000001 -0.000002 0.597135 -8.617160 -43.778910 -1.109884 -3.169514 -67.079397 0.000002 -0.000001 0.000000 -7.087180 -3.667330 -48.869730 -1.011301 -1.342370 -47.316586 -0.000000 0.000001 -0.000000 -4.938917 -5.414228 -25.725882 -0.524923 -1.505110 -44.925149 0.000002 0.000001 0.000002 0.000001 -0.000001 0.000004 6.191055 2.333293 11.053883 -1.400252 11.694968 43.577806 -59.538021 61.751508 53.863107 2.722907 14.047017 -8.933491 55.149519 18.649579 -29.698202 -0.442565 -14.180487 7.312996 0.000000 0.000001 0.000001 5.673328 7.585064 36.844325 1.050423 3.824473 68.900141 0.000003 0.000002 0.000002 -0.125753 1.885997 45.000882 -1.168937 3.204726 68.417554 0.000004 0.000000 0.000001 -5.312053 1.216607 58.509006 -0.745218 1.667542 48.011220 0.000002 -0.000003 0.000007 -7.756646 -9.376487 47.264096 -0.526230 1.541554 45.600365 -0.000001 -0.000003 -0.000000 0.000001 0.000000 0.000002 0.000003 0.000000 -0.000002 0.000003 0.000000 -0.000002 0.000003 0.000000 -0.000002 0.000003 0.000000 -0.000002 0.000003 0.000000 -0.000000 0.000003 0.000003 -0.000003 0.000003 0.000000 -0.000002 0.000003 0.000000 -0.000000 0.000003 0.000003 -0.000003 -0.000002 -0.000003 0.000002 -0.000002 -0.000003 0.000002 -0.000000 0.000002 -0.000000 
0.722550 76.151207 6.245087 6.516792 -30.111285 3.972470 0.000000 0.000001 0.000000 -53.433123 0.628222 1.173835 80.823753 -0.384092 -0.481339 5.383127 -0.232710 -2.217303 -0.000000 0.000001 -0.000001 -0.000000 0.000001 -0.000000 0.000000 -0.000001 0.000001 -17.497375 -7.563576 -17.949370 40.154539 7.290551 2.096070 -25.156174 -5.673604 8.028370 -0.000000 0.000001 -0.000000 -0.000000 0.000001 -0.000000 -0.000001 -0.000004 -0.000000 14.404278 -0.633762 -0.012798 11.350057 -2.738775 -3.496946 -0.482228 -1.961526 -3.984810 -36.368025 8.568015 9.383216 18.093345 18.640870 -3.737614 -0.000000 0.000000 -0.000000 -0.000000 0.000000 -0.000000 -0.000000 0.000000 -0.000000 3.646323 -1.695054 -2.870001 3.311253 -14.295804 -35.902695 -50.670462 -69.174387 -45.111815 7.302364 -27.422593 20.900784 53.593370 -17.515207 22.991262 -0.053766 14.779775 -7.378164 0.000001 0.000004 0.000001 5.379205 -7.229504 -35.055085 1.209735 -3.527368 -65.762024 -0.000000 -0.000001 -0.000002 0.829647 -8.330642 -42.782010 -1.050228 -3.132467 -65.712895 0.000001 -0.000001 -0.000002 -6.687565 -3.555475 -47.967213 -1.001356 -1.323208 -46.599621 -0.000001 0.000000 -0.000002 -4.747976 -5.138917 -25.638537 -0.524129 -1.468073 -44.235420 0.000000 0.000001 -0.000000 -0.000001 0.000001 -0.000004 5.509548 4.177138 10.622860 -5.986331 18.444636 45.024966 -57.469102 59.082905 54.326010 2.803807 13.484601 -11.844287 55.149522 18.649574 -29.698209 -0.442562 -14.180482 7.312994 -0.000000 -0.000000 0.000001 5.673331 7.585060 36.844318 1.050422 3.824471 68.900134 0.000001 0.000001 0.000004 -0.125751 1.885992 45.000882 -1.168936 3.204724 68.417554 0.000001 0.000002 -0.000002 -5.312055 1.216605 58.509006 -0.745218 1.667546 48.011220 -0.000004 -0.000001 0.000005 -7.756652 -9.376485 47.264089 -0.526229 1.541555 45.600368 0.000002 0.000000 0.000004 0.000000 0.000001 0.000003 0.000002 -0.000001 -0.000001 0.000002 -0.000001 -0.000001 0.000002 -0.000001 -0.000001 0.000002 -0.000001 -0.000001 0.000002 -0.000001 -0.000000 -0.000000 -0.000002 -0.000001 0.000002 -0.000001 -0.000001 0.000002 -0.000001 -0.000000 -0.000000 -0.000002 -0.000001 -0.000000 -0.000001 -0.000001 -0.000000 -0.000001 -0.000001 0.000000 0.000001 0.000000 
1.036929 76.485268 10.204421 6.404592 -28.169145 5.311871 -0.000001 0.000001 -0.000000 -51.977873 1.398815 -1.906186 71.365997 2.177993 2.526624 3.883448 -0.321224 -0.038066 -0.000000 0.000000 -0.000000 -0.000000 0.000000 -0.000000 -0.000001 -0.000000 0.000002 -10.625320 -8.373821 -20.353346 32.543382 6.127132 1.823358 -24.222323 -7.485974 10.977325 0.000000 0.000001 0.000000 0.000000 0.000001 0.000000 -0.000002 -0.000001 -0.000000 14.731127 0.094639 -0.182917 11.243057 -1.843339 -5.206616 -0.555872 -0.734718 -5.473513 -35.861608 6.527919 9.077785 18.180096 16.621228 -3.298846 0.000001 -0.000000 -0.000000 0.000001 -0.000000 -0.000000 0.000001 -0.000000 -0.000000 2.981233 -1.014044 -2.138695 4.480688 -16.752649 -36.967128 -53.983278 -70.748568 -50.006858 8.307101 -27.147062 25.457454 52.689705 -17.312638 22.667122 -0.186188 14.657106 -7.353852 -0.000002 -0.000002 -0.000000 5.222375 -7.056571 -34.133549 1.283136 -3.372096 -64.146719 -0.000002 -0.000001 -0.000000 1.056967 -8.033108 -41.767611 -0.990158 -3.093651 -64.320274 0.000001 -0.000002 0.000002 -6.285196 -3.429682 -47.048600 -0.991415 -1.303587 -45.868880 -0.000002 0.000000 -0.000000 -4.554301 -4.857710 -25.550810 -0.523768 -1.430487 -43.532487 0.000001 -0.000000 0.000001 -0.000000 -0.000002 0.000002 4.788705 6.097157 10.353440 -11.722322 23.656883 45.512368 -53.395817 53.233910 51.618328 2.902019 16.354753 -12.235951 55.149522 18.649579 -29.698206 -0.442561 -14.180480 7.312996 -0.000003 0.000000 -0.000001 5.673326 7.585065 36.844325 1.050422 3.824469 68.900141 0.000001 0.000001 -0.000003 -0.125755 1.885995 45.000882 -1.168937 3.204725 68.417561 0.000001 -0.000000 0.000001 -5.312058 1.216605 58.508999 -0.745217 1.667539 48.011220 0.000000 -0.000000 0.000002 -7.756652 -9.376485 47.264089 -0.526229 1.541554 45.600361 -0.000001 0.000001 -0.000001 -0.000000 -0.000000 0.000000 0.000003 -0.000001 -0.000001 0.000003 -0.000001 -0.000001 0.000003 -0.000001 -0.000001 0.000003 -0.000001 -0.000001 0.000003 -0.000001 -0.000001 0.000001 -0.000001 -0.000001 0.000003 -0.000001 -0.000001 0.000003 -0.000001 -0.000001 0.000001 -0.000001 -0.000001 0.000002 -0.000001 -0.000001 0.000002 -0.000001 -0.000001 -0.000001 0.000001 -0.000000 
